<?xml version="1.0" encoding="UTF-8" standalone="no"?>
<!DOCTYPE svg PUBLIC "-//W3C//DTD SVG 1.1//EN"
 "http://www.w3.org/Graphics/SVG/1.1/DTD/svg11.dtd">
<!-- Generated by graphviz version 2.26.3 (20100126.1600)
 -->
<!-- Title: _anonymous_0 Pages: 1 -->
<svg width="179pt" height="208pt"
 viewBox="0.00 0.00 179.00 208.00" xmlns="http://www.w3.org/2000/svg" xmlns:xlink="http://www.w3.org/1999/xlink">
<g id="graph1" class="graph" transform="scale(1 1) rotate(0) translate(4 204)">
<title>_anonymous_0</title>
<polygon fill="white" stroke="white" points="-4,5 -4,-204 176,-204 176,5 -4,5"/>
<!-- A -->
<g id="node1" class="node"><title>A</title>
<ellipse fill="none" stroke="black" cx="99" cy="-182" rx="47.9469" ry="18"/>
<text text-anchor="middle" x="99" y="-177.9" font-family="Times Roman,serif" font-size="14.00">Node A</text>
</g>
<!-- B -->
<g id="node2" class="node"><title>B</title>
<ellipse fill="none" stroke="black" cx="48" cy="-92" rx="47.9469" ry="18"/>
<text text-anchor="middle" x="48" y="-87.9" font-family="Times Roman,serif" font-size="14.00">Node B</text>
</g>
<!-- A&#45;&gt;B -->
<g id="edge2" class="edge"><title>A&#45;&gt;B</title>
<path fill="none" stroke="black" d="M82.2006,-165.02C77.1639,-159.306 71.9382,-152.678 68,-146 63.2551,-137.954 59.3095,-128.587 56.2119,-119.936"/>
<polygon fill="black" stroke="black" points="59.4576,-118.606 52.9679,-110.231 52.8187,-120.825 59.4576,-118.606"/>
<text text-anchor="middle" x="93" y="-132.9" font-family="Times Roman,serif" font-size="14.00">Edge 1</text>
</g>
<!-- C -->
<g id="node3" class="node"><title>C</title>
<ellipse fill="none" stroke="black" cx="105" cy="-18" rx="27" ry="18"/>
<text text-anchor="middle" x="105" y="-13.9" font-family="Times Roman,serif" font-size="14.00">C</text>
</g>
<!-- A&#45;&gt;C -->
<g id="edge4" class="edge"><title>A&#45;&gt;C</title>
<path fill="none" stroke="black" d="M110.478,-164.377C113.543,-158.735 116.437,-152.311 118,-146 126.402,-112.081 119.68,-71.8155 113.181,-45.6281"/>
<polygon fill="black" stroke="black" points="116.485,-44.4336 110.547,-35.6591 109.718,-46.2214 116.485,-44.4336"/>
<text text-anchor="middle" x="146" y="-87.9" font-family="Times Roman,serif" font-size="14.00">Edge 2</text>
</g>
<!-- B&#45;&gt;C -->
<g id="edge6" class="edge"><title>B&#45;&gt;C</title>
<path fill="none" stroke="black" d="M61.5082,-74.463C68.9376,-64.8179 78.2671,-52.7059 86.3783,-42.1755"/>
<polygon fill="black" stroke="black" points="89.2331,-44.2048 92.5626,-34.1467 83.6875,-39.9332 89.2331,-44.2048"/>
</g>
</g>
</svg>
