<?xml version="1.0" encoding="UTF-8" standalone="no"?>
<!DOCTYPE svg PUBLIC "-//W3C//DTD SVG 1.1//EN"
 "http://www.w3.org/Graphics/SVG/1.1/DTD/svg11.dtd">
<!-- Generated by graphviz version 2.26.3 (20100126.1600)
 -->
<!-- Title: _anonymous_0 Pages: 1 -->
<svg width="183pt" height="257pt"
 viewBox="0.00 0.00 183.00 257.00" xmlns="http://www.w3.org/2000/svg" xmlns:xlink="http://www.w3.org/1999/xlink">
<g id="graph1" class="graph" transform="scale(1 1) rotate(0) translate(4 253)">
<title>_anonymous_0</title>
<polygon fill="#333333" stroke="#333333" points="-4,5 -4,-253 180,-253 180,5 -4,5"/>
<text text-anchor="middle" x="87.5" y="-8.6" font-family="Times Roman,serif" font-size="16.00" fill="white">A Fancy Graph</text>
<!-- A -->
<g id="node1" class="node"><title>A</title>
<polygon fill="#006699" stroke="white" points="160.758,-49 134.879,-71.0454 83.1209,-71.0454 57.2419,-49 83.1209,-26.9546 134.879,-26.9546 160.758,-49"/>
<text text-anchor="middle" x="109" y="-45.9" font-family="Helvetica,sans-Serif" font-size="14.00" fill="white">Node A</text>
</g>
<!-- B -->
<g id="node2" class="node"><title>B</title>
<polygon fill="#006699" stroke="white" points="103.758,-145 77.8791,-167.045 26.1209,-167.045 0.241893,-145 26.1209,-122.955 77.8791,-122.955 103.758,-145"/>
<text text-anchor="middle" x="52" y="-141.9" font-family="Helvetica,sans-Serif" font-size="14.00" fill="white">Node B</text>
</g>
<!-- A&#45;&gt;B -->
<g id="edge2" class="edge"><title>A&#45;&gt;B</title>
<path fill="none" stroke="white" stroke-dasharray="5,2" d="M91.7743,-71.4046C87.7273,-77.0277 83.5602,-83.1338 80,-89 75.298,-96.7475 70.6888,-105.388 66.6107,-113.519"/>
<polygon fill="white" stroke="white" points="62.0935,-122.745 62.4493,-111.785 64.2922,-118.255 66.4909,-113.764 66.4909,-113.764 66.4909,-113.764 64.2922,-118.255 70.5325,-115.743 62.0935,-122.745 62.0935,-122.745"/>
<text text-anchor="middle" x="103" y="-93.7" font-family="Courier,monospace" font-size="12.00" fill="white">Edge 1</text>
</g>
<!-- C -->
<g id="node3" class="node"><title>C</title>
<polygon fill="#006699" stroke="white" points="139,-227 125.5,-249.045 98.5,-249.045 85,-227 98.5,-204.955 125.5,-204.955 139,-227"/>
<text text-anchor="middle" x="112" y="-223.9" font-family="Helvetica,sans-Serif" font-size="14.00" fill="white">C</text>
</g>
<!-- A&#45;&gt;C -->
<g id="edge4" class="edge"><title>A&#45;&gt;C</title>
<path fill="none" stroke="white" stroke-dasharray="5,2" d="M120.349,-71.3353C122.683,-76.9606 124.795,-83.085 126,-89 133.288,-124.78 127.031,-166.588 120.718,-194.731"/>
<polygon fill="white" stroke="white" points="118.324,-204.807 116.257,-194.037 119.48,-199.942 120.635,-195.078 120.635,-195.078 120.635,-195.078 119.48,-199.942 125.014,-196.118 118.324,-204.807 118.324,-204.807"/>
<text text-anchor="middle" x="152" y="-141.7" font-family="Courier,monospace" font-size="12.00" fill="white">Edge 2</text>
</g>
<!-- B&#45;&gt;C -->
<g id="edge6" class="edge"><title>B&#45;&gt;C</title>
<path fill="none" stroke="white" stroke-dasharray="5,2" d="M68.3953,-167.407C75.4431,-177.039 83.7619,-188.408 91.2339,-198.62"/>
<polygon fill="white" stroke="white" points="97.2647,-206.862 87.7279,-201.449 94.3122,-202.827 91.3596,-198.791 91.3596,-198.791 91.3596,-198.791 94.3122,-202.827 94.9912,-196.134 97.2647,-206.862 97.2647,-206.862"/>
</g>
</g>
</svg>
