<?xml version="1.0" encoding="UTF-8" standalone="no"?>
<!DOCTYPE svg PUBLIC "-//W3C//DTD SVG 1.1//EN"
 "http://www.w3.org/Graphics/SVG/1.1/DTD/svg11.dtd">
<!-- Generated by graphviz version 2.26.3 (20100126.1600)
 -->
<!-- Title: _anonymous_0 Pages: 1 -->
<svg width="273pt" height="366pt"
 viewBox="0.00 0.00 273.00 366.00" xmlns="http://www.w3.org/2000/svg" xmlns:xlink="http://www.w3.org/1999/xlink">
<g id="graph1" class="graph" transform="scale(1 1) rotate(0) translate(4 362)">
<title>_anonymous_0</title>
<polygon fill="white" stroke="white" points="-4,5 -4,-362 270,-362 270,5 -4,5"/>
<!-- A -->
<g id="node1" class="node"><title>A</title>
<ellipse fill="none" stroke="black" cx="48" cy="-340" rx="47.9469" ry="18"/>
<text text-anchor="middle" x="48" y="-335.9" font-family="Times Roman,serif" font-size="14.00">Node A</text>
</g>
<!-- B -->
<g id="node2" class="node"><title>B</title>
<ellipse fill="none" stroke="black" cx="127" cy="-232" rx="47.9469" ry="18"/>
<text text-anchor="middle" x="127" y="-227.9" font-family="Times Roman,serif" font-size="14.00">Node B</text>
</g>
<!-- A&#45;&gt;B -->
<g id="edge2" class="edge"><title>A&#45;&gt;B</title>
<path fill="none" stroke="black" d="M61.0452,-322.166C73.8722,-304.63 93.5873,-277.678 108.124,-257.806"/>
<polygon fill="black" stroke="black" points="111.118,-259.64 114.197,-249.502 105.469,-255.507 111.118,-259.64"/>
<text text-anchor="middle" x="113" y="-290.9" font-family="Times Roman,serif" font-size="14.00">Edge 1</text>
</g>
<!-- C -->
<g id="node3" class="node"><title>C</title>
<ellipse fill="none" stroke="black" cx="36" cy="-108" rx="27" ry="18"/>
<text text-anchor="middle" x="36" y="-103.9" font-family="Times Roman,serif" font-size="14.00">C</text>
</g>
<!-- A&#45;&gt;C -->
<g id="edge4" class="edge"><title>A&#45;&gt;C</title>
<path fill="none" stroke="black" d="M38.9335,-322.204C32.21,-307.958 23.6105,-287.246 20,-268 11.3983,-222.149 20.8443,-167.981 28.4411,-135.891"/>
<polygon fill="black" stroke="black" points="31.9091,-136.448 30.9179,-125.899 25.1147,-134.764 31.9091,-136.448"/>
<text text-anchor="middle" x="45" y="-227.9" font-family="Times Roman,serif" font-size="14.00">Edge 2</text>
</g>
<!-- B&#45;&gt;C -->
<g id="edge6" class="edge"><title>B&#45;&gt;C</title>
<path fill="none" stroke="black" d="M114.155,-214.497C98.4467,-193.092 71.7635,-156.733 54.0108,-132.542"/>
<polygon fill="black" stroke="black" points="56.6495,-130.222 47.9113,-124.231 51.0061,-134.364 56.6495,-130.222"/>
</g>
<!-- E -->
<g id="node9" class="node"><title>E</title>
<polygon fill="#cccccc" stroke="black" points="177,-142 109,-142 109,-74 177,-74 177,-142"/>
<text text-anchor="middle" x="143" y="-103.9" font-family="Times Roman,serif" font-size="14.00">Node E</text>
</g>
<!-- B&#45;&gt;E -->
<g id="edge15" class="edge"><title>B&#45;&gt;E</title>
<path fill="none" stroke="red" d="M129.327,-213.969C131.405,-197.864 134.535,-173.604 137.276,-152.359"/>
<polygon fill="red" stroke="red" points="140.776,-152.586 138.584,-142.22 133.833,-151.69 140.776,-152.586"/>
</g>
<!-- D -->
<g id="node8" class="node"><title>D</title>
<polygon fill="#cccccc" stroke="black" points="263,-267.5 193,-267.5 193,-196.5 263,-196.5 263,-267.5"/>
<text text-anchor="middle" x="228" y="-227.9" font-family="Times Roman,serif" font-size="14.00">Node D</text>
</g>
<!-- D&#45;&gt;E -->
<g id="edge9" class="edge"><title>D&#45;&gt;E</title>
<path fill="none" stroke="black" d="M192.966,-203.252C177.921,-190.844 163.601,-178.922 163,-178 157.879,-170.148 154.046,-160.97 151.185,-151.893"/>
<polygon fill="black" stroke="black" points="154.523,-150.831 148.448,-142.151 147.784,-152.725 154.523,-150.831"/>
<text text-anchor="middle" x="188" y="-164.9" font-family="Times Roman,serif" font-size="14.00">Edge 3</text>
</g>
<!-- F -->
<g id="node10" class="node"><title>F</title>
<polygon fill="#cccccc" stroke="black" points="218,-36 182,-36 182,-1.77636e-14 218,-3.55271e-15 218,-36"/>
<text text-anchor="middle" x="200" y="-13.9" font-family="Times Roman,serif" font-size="14.00">F</text>
</g>
<!-- D&#45;&gt;F -->
<g id="edge11" class="edge"><title>D&#45;&gt;F</title>
<path fill="none" stroke="black" d="M223.313,-196.181C217.792,-153.982 208.734,-84.7504 203.688,-46.1842"/>
<polygon fill="black" stroke="black" points="207.145,-45.629 202.377,-36.1676 200.204,-46.5372 207.145,-45.629"/>
<text text-anchor="middle" x="240" y="-103.9" font-family="Times Roman,serif" font-size="14.00">Edge 4</text>
</g>
<!-- E&#45;&gt;F -->
<g id="edge13" class="edge"><title>E&#45;&gt;F</title>
<path fill="none" stroke="black" d="M164.549,-73.9749C170.602,-64.4174 177.101,-54.1566 182.859,-45.064"/>
<polygon fill="black" stroke="black" points="185.934,-46.7509 188.328,-36.43 180.02,-43.0055 185.934,-46.7509"/>
</g>
</g>
</svg>
